<svg width="45" height="43" viewBox="0 0 45 43" fill="none" xmlns="http://www.w3.org/2000/svg">
<path d="M43 21.5C43 32.1848 33.9085 41 22.5 41C11.0915 41 2 32.1848 2 21.5C2 10.8152 11.0915 2 22.5 2C33.9085 2 43 10.8152 43 21.5Z" stroke="white" stroke-width="4"/>
<mask id="path-2-inside-1" fill="white">
<path d="M21.7614 17.4102L16.0002 23.1731V29.3928C16.0002 29.5538 16.0529 29.7083 16.1467 29.8222C16.2404 29.936 16.3676 30 16.5002 30L20.0018 29.989C20.134 29.9882 20.2605 29.9239 20.3537 29.8101C20.4469 29.6963 20.4993 29.5423 20.4993 29.3818V25.7495C20.4993 25.5885 20.5519 25.434 20.6457 25.3202C20.7395 25.2063 20.8666 25.1423 20.9992 25.1423H22.9991C23.1317 25.1423 23.2588 25.2063 23.3526 25.3202C23.4464 25.434 23.499 25.5885 23.499 25.7495V29.3791C23.4988 29.459 23.5116 29.5382 23.5366 29.6121C23.5617 29.686 23.5985 29.7531 23.6449 29.8097C23.6914 29.8663 23.7465 29.9112 23.8073 29.9418C23.8681 29.9725 23.9332 29.9882 23.999 29.9882L27.4994 30C27.6319 30 27.7591 29.936 27.8529 29.8222C27.9466 29.7083 27.9993 29.5538 27.9993 29.3928V23.1689L22.2394 17.4102C22.1717 17.344 22.0874 17.3078 22.0004 17.3078C21.9134 17.3078 21.8291 17.344 21.7614 17.4102ZM30.8616 21.3271L28.2493 18.712V13.4554C28.2493 13.3346 28.2098 13.2188 28.1395 13.1334C28.0691 13.048 27.9738 13 27.8743 13H26.1245C26.025 13 25.9296 13.048 25.8593 13.1334C25.789 13.2188 25.7495 13.3346 25.7495 13.4554V16.211L22.9519 13.4156C22.6834 13.1472 22.3465 13.0005 21.9988 13.0005C21.6511 13.0005 21.3143 13.1472 21.0458 13.4156L13.1361 21.3271C13.0981 21.3652 13.0667 21.4121 13.0436 21.4649C13.0206 21.5178 13.0063 21.5757 13.0017 21.6352C12.997 21.6948 13.0021 21.7549 13.0166 21.8121C13.0311 21.8693 13.0547 21.9224 13.0861 21.9685L13.8829 23.145C13.9142 23.1912 13.9527 23.2295 13.9963 23.2577C14.0398 23.2858 14.0875 23.3033 14.1365 23.309C14.1856 23.3148 14.2351 23.3087 14.2823 23.2912C14.3294 23.2736 14.3733 23.245 14.4113 23.2068L21.7614 15.8543C21.8291 15.788 21.9134 15.7518 22.0004 15.7518C22.0874 15.7518 22.1717 15.788 22.2394 15.8543L29.5898 23.2068C29.6278 23.245 29.6715 23.2737 29.7186 23.2913C29.7657 23.3088 29.8152 23.315 29.8642 23.3094C29.9133 23.3037 29.9609 23.2864 30.0044 23.2584C30.048 23.2304 30.0865 23.1922 30.1179 23.1461L30.9147 21.9696C30.9461 21.9233 30.9696 21.8699 30.9839 21.8124C30.9982 21.755 31.0031 21.6947 30.9981 21.635C30.9932 21.5753 30.9786 21.5173 30.9552 21.4645C30.9317 21.4117 30.8999 21.365 30.8616 21.3271Z"/>
</mask>
<path d="M16.0002 23.1731L14.5858 21.759L14.0002 22.3448V23.1731H16.0002ZM16.5002 30V32L16.5065 32L16.5002 30ZM20.0018 29.989L20.0081 31.989L20.0139 31.989L20.0018 29.989ZM20.4993 29.3818H18.4993V29.3818L20.4993 29.3818ZM23.499 29.3791L25.499 29.3843V29.3791H23.499ZM23.999 29.9882L24.0057 27.9882H23.999L23.999 29.9882ZM27.4994 30L27.4926 32H27.4994V30ZM27.9993 23.1689H29.9993V22.3403L29.4134 21.7545L27.9993 23.1689ZM22.2394 17.4102L23.6535 15.9959L23.6461 15.9884L23.6385 15.9811L22.2394 17.4102ZM28.2493 18.712H26.2493V19.5397L26.8343 20.1254L28.2493 18.712ZM25.7495 16.211L24.3358 17.6258L27.7495 21.0368V16.211H25.7495ZM22.9519 13.4156L21.5381 14.8302L21.5382 14.8303L22.9519 13.4156ZM21.9988 13.0005V15.0005V13.0005ZM21.0458 13.4156L19.632 12.0009L19.6314 12.0015L21.0458 13.4156ZM13.1361 21.3271L11.7217 19.9131L11.7192 19.9156L13.1361 21.3271ZM13.0861 21.9685L14.742 20.8469L14.7389 20.8423L13.0861 21.9685ZM13.8829 23.145L15.5389 22.0236L15.5388 22.0234L13.8829 23.145ZM14.4113 23.2068L12.9968 21.7929L12.9949 21.7948L14.4113 23.2068ZM21.7614 15.8543L20.3623 14.4251L20.3545 14.4327L20.3469 14.4403L21.7614 15.8543ZM22.2394 15.8543L23.6539 14.4403L23.6462 14.4326L23.6385 14.4251L22.2394 15.8543ZM29.5898 23.2068L31.0076 21.7962L31.0042 21.7928L29.5898 23.2068ZM30.1179 23.1461L31.7713 24.2713L31.7738 24.2677L30.1179 23.1461ZM30.9147 21.9696L32.5707 23.0912L32.5711 23.0906L30.9147 21.9696ZM20.3469 15.9962L14.5858 21.759L17.4147 24.5871L23.1758 18.8243L20.3469 15.9962ZM14.0002 23.1731V29.3928H18.0002V23.1731H14.0002ZM14.0002 29.3928C14.0002 29.9721 14.1864 30.5878 14.6027 31.0934L17.6907 28.5509C17.9194 28.8287 18.0002 29.1356 18.0002 29.3928H14.0002ZM14.6027 31.0934C15.028 31.61 15.6978 32 16.5002 32V28C17.0374 28 17.4528 28.262 17.6907 28.5509L14.6027 31.0934ZM16.5065 32L20.0081 31.989L19.9955 27.989L16.4939 28L16.5065 32ZM20.0139 31.989C20.8133 31.9841 21.4785 31.593 21.9008 31.0775L18.8066 28.5426C19.0424 28.2548 19.4547 27.9923 19.9897 27.989L20.0139 31.989ZM21.9008 31.0775C22.3143 30.5729 22.4993 29.9593 22.4993 29.3818L18.4993 29.3818C18.4993 29.1253 18.5796 28.8197 18.8066 28.5426L21.9008 31.0775ZM22.4993 29.3818V25.7495H18.4993V29.3818H22.4993ZM22.4993 25.7495C22.4993 26.0067 22.4184 26.3136 22.1897 26.5914L19.1017 24.0489C18.6854 24.5545 18.4993 25.1702 18.4993 25.7495H22.4993ZM22.1897 26.5914C21.9518 26.8803 21.5364 27.1423 20.9992 27.1423V23.1423C20.1969 23.1423 19.5271 23.5323 19.1017 24.0489L22.1897 26.5914ZM20.9992 27.1423H22.9991V23.1423H20.9992V27.1423ZM22.9991 27.1423C22.4619 27.1423 22.0465 26.8803 21.8086 26.5914L24.8966 24.0489C24.4712 23.5323 23.8014 23.1423 22.9991 23.1423V27.1423ZM21.8086 26.5914C21.5799 26.3136 21.499 26.0068 21.499 25.7495H25.499C25.499 25.1702 25.3129 24.5545 24.8966 24.0489L21.8086 26.5914ZM21.499 25.7495V29.3791H25.499V25.7495H21.499ZM21.499 29.374C21.4983 29.6685 21.5451 29.9665 21.6424 30.2538L25.4309 28.9703C25.4782 29.1098 25.4994 29.2496 25.499 29.3843L21.499 29.374ZM21.6424 30.2538C21.7397 30.541 21.8898 30.8237 22.099 31.0786L25.1908 28.5408C25.3072 28.6825 25.3837 28.831 25.4309 28.9703L21.6424 30.2538ZM22.099 31.0786C22.3087 31.3341 22.5789 31.5623 22.9069 31.7277L24.7077 28.156C24.9142 28.2601 25.0741 28.3986 25.1908 28.5408L22.099 31.0786ZM22.9069 31.7277C23.237 31.8941 23.6096 31.9882 23.999 31.9882L23.999 27.9882C24.2568 27.9882 24.4991 28.0508 24.7077 28.156L22.9069 31.7277ZM23.9923 31.9882L27.4926 32L27.5061 28L24.0057 27.9882L23.9923 31.9882ZM27.4994 32C28.3017 32 28.9715 31.61 29.3969 31.0934L26.3089 28.5509C26.5467 28.262 26.9622 28 27.4994 28V32ZM29.3969 31.0934C29.8131 30.5878 29.9993 29.9721 29.9993 29.3928H25.9993C25.9993 29.1356 26.0801 28.8287 26.3089 28.5509L29.3969 31.0934ZM29.9993 29.3928V23.1689H25.9993V29.3928H29.9993ZM29.4134 21.7545L23.6535 15.9959L20.8254 18.8246L26.5853 24.5832L29.4134 21.7545ZM23.6385 15.9811C23.2338 15.5848 22.6597 15.3078 22.0004 15.3078V19.3078C21.515 19.3078 21.1097 19.1031 20.8403 18.8394L23.6385 15.9811ZM22.0004 15.3078C21.3411 15.3078 20.767 15.5848 20.3623 15.9811L23.1605 18.8394C22.8911 19.1031 22.4858 19.3078 22.0004 19.3078V15.3078ZM32.2766 19.9137L29.6643 17.2985L26.8343 20.1254L29.4466 22.7406L32.2766 19.9137ZM30.2493 18.712V13.4554H26.2493V18.712H30.2493ZM30.2493 13.4554C30.2493 12.9164 30.0763 12.3392 29.6834 11.8621L26.5955 14.4047C26.3433 14.0983 26.2493 13.7529 26.2493 13.4554H30.2493ZM29.6834 11.8621C29.2815 11.374 28.6436 11 27.8743 11V15C27.304 15 26.8568 14.722 26.5955 14.4047L29.6834 11.8621ZM27.8743 11H26.1245V15H27.8743V11ZM26.1245 11C25.3552 11 24.7172 11.374 24.3153 11.8621L27.4033 14.4047C27.142 14.722 26.6948 15 26.1245 15V11ZM24.3153 11.8621C23.9225 12.3392 23.7495 12.9164 23.7495 13.4554H27.7495C27.7495 13.7529 27.6555 14.0983 27.4033 14.4047L24.3153 11.8621ZM23.7495 13.4554V16.211H27.7495V13.4554H23.7495ZM27.1632 14.7962L24.3656 12.0008L21.5382 14.8303L24.3358 17.6258L27.1632 14.7962ZM24.3657 12.0009C23.76 11.3956 22.928 11.0005 21.9988 11.0005V15.0005C21.7651 15.0005 21.6068 14.8988 21.5381 14.8302L24.3657 12.0009ZM21.9988 11.0005C21.0697 11.0005 20.2376 11.3956 19.632 12.0009L22.4596 14.8302C22.3909 14.8988 22.2326 15.0005 21.9988 15.0005V11.0005ZM19.6314 12.0015L11.7217 19.9131L14.5505 22.7412L22.4602 14.8296L19.6314 12.0015ZM11.7192 19.9156C11.4933 20.1424 11.3258 20.4009 11.2105 20.6652L14.8768 22.2647C14.8076 22.4233 14.7029 22.5881 14.553 22.7386L11.7192 19.9156ZM11.2105 20.6652C11.0951 20.9297 11.0291 21.2061 11.0077 21.4798L14.9956 21.7907C14.9836 21.9453 14.946 22.106 14.8768 22.2647L11.2105 20.6652ZM11.0077 21.4798C10.9864 21.7536 11.0092 22.0322 11.0778 22.3032L14.9553 21.321C14.995 21.4776 15.0077 21.636 14.9956 21.7907L11.0077 21.4798ZM11.0778 22.3032C11.1464 22.574 11.2627 22.8443 11.4333 23.0947L14.7389 20.8423C14.8467 21.0005 14.9157 21.1645 14.9553 21.321L11.0778 22.3032ZM11.4302 23.0901L12.227 24.2665L15.5388 22.0234L14.742 20.847L11.4302 23.0901ZM12.2269 24.2664C12.3969 24.5175 12.624 24.752 12.9101 24.937L15.0824 21.5783C15.2815 21.707 15.4315 21.8649 15.5389 22.0236L12.2269 24.2664ZM12.9101 24.937C13.198 25.1232 13.5357 25.2523 13.904 25.2954L14.3691 21.3226C14.6392 21.3542 14.8816 21.4484 15.0824 21.5783L12.9101 24.937ZM13.904 25.2954C14.2732 25.3387 14.6411 25.2915 14.9794 25.1657L13.5852 21.4166C13.8292 21.3258 14.098 21.2908 14.3691 21.3226L13.904 25.2954ZM14.9794 25.1657C15.3156 25.0407 15.6007 24.8466 15.8277 24.6189L12.9949 21.7948C13.1459 21.6434 13.3433 21.5065 13.5852 21.4166L14.9794 25.1657ZM15.8258 24.6208L23.1758 17.2682L20.3469 14.4403L12.9968 21.7929L15.8258 24.6208ZM23.1605 17.2834C22.8911 17.5471 22.4858 17.7518 22.0004 17.7518V13.7518C21.3411 13.7518 20.767 14.0289 20.3623 14.4251L23.1605 17.2834ZM22.0004 17.7518C21.515 17.7518 21.1097 17.5471 20.8403 17.2834L23.6385 14.4251C23.2338 14.0289 22.6597 13.7518 22.0004 13.7518V17.7518ZM20.825 17.2683L28.1754 24.6208L31.0042 21.7928L23.6539 14.4403L20.825 17.2683ZM28.1721 24.6175C28.3986 24.8451 28.683 25.0394 29.0186 25.1647L30.4186 21.4178C30.66 21.508 30.857 21.6448 31.0076 21.7962L28.1721 24.6175ZM29.0186 25.1647C29.3563 25.2909 29.7236 25.3387 30.0927 25.2963L29.6358 21.3224C29.9067 21.2913 30.1751 21.3268 30.4186 21.4178L29.0186 25.1647ZM30.0927 25.2963C30.4608 25.2539 30.7985 25.1257 31.0867 24.9402L28.9221 21.5765C29.1233 21.4471 29.3658 21.3535 29.6358 21.3224L30.0927 25.2963ZM31.0867 24.9402C31.3732 24.7559 31.6007 24.522 31.7713 24.2713L28.4645 22.0209C28.5723 21.8624 28.7228 21.7048 28.9221 21.5765L31.0867 24.9402ZM31.7738 24.2677L32.5707 23.0912L29.2588 20.8481L28.462 22.0246L31.7738 24.2677ZM32.5711 23.0906C32.7412 22.8392 32.8568 22.5678 32.9246 22.2961L29.0433 21.3287C29.0824 21.1719 29.151 21.0074 29.2583 20.8487L32.5711 23.0906ZM32.9246 22.2961C32.9923 22.0242 33.014 21.7447 32.9913 21.4702L29.0049 21.7998C28.9921 21.6446 29.0041 21.4858 29.0433 21.3287L32.9246 22.2961ZM32.9913 21.4702C32.9686 21.1957 32.9009 20.9185 32.7834 20.6536L29.1269 22.2754C29.0563 22.1162 29.0177 21.9549 29.0049 21.7998L32.9913 21.4702ZM32.7834 20.6536C32.666 20.3889 32.4959 20.1302 32.2669 19.9041L29.4563 22.7502C29.304 22.5998 29.1975 22.4345 29.1269 22.2754L32.7834 20.6536Z" fill="white" mask="url(#path-2-inside-1)"/>
</svg>
