<svg width="45" height="43" viewBox="0 0 45 43" fill="none" xmlns="http://www.w3.org/2000/svg">
<path d="M43 21.5C43 32.1848 33.9085 41 22.5 41C11.0915 41 2 32.1848 2 21.5C2 10.8152 11.0915 2 22.5 2C33.9085 2 43 10.8152 43 21.5Z" stroke="white" stroke-width="4"/>
<path d="M25.5458 24.1675C28.4789 21.9579 29.713 21.0111 30.5 20.3894M25.5458 24.1675C25.5458 24.1675 25.5458 24.1676 25.5458 24.1676L25.2449 23.7682M25.5458 24.1675C25.5461 24.1674 25.5463 24.1672 25.5465 24.1671L25.2449 23.7682M25.5458 24.1675C25.4557 24.2357 25.3459 24.3237 25.2214 24.4235C24.9123 24.6713 24.5126 24.9918 24.0982 25.2615C23.5106 25.6439 22.7762 26.0093 21.9993 26.0037M30.5 20.3894L25.2449 23.7682M30.5 20.3894V27.25C30.5 27.9573 29.951 28.5 29.3125 28.5H14.6875C14.049 28.5 13.5 27.9573 13.5 27.25V20.3924M30.5 20.3894L18.4573 24.1672M25.2449 23.7682C25.1361 23.8505 25.0143 23.9482 24.8814 24.0548C24.1427 24.6474 23.0638 25.5129 22 25.5036M21.9993 26.0037C22.0005 26.0036 22.0017 26.0036 22.0029 26.0036L22 25.5036M21.9993 26.0037C21.2277 26.007 20.5023 25.6484 19.9172 25.2686C19.5043 25.0005 19.1054 24.6816 18.791 24.4301C18.6646 24.329 18.5518 24.2388 18.4573 24.1672M21.9993 26.0037C21.9981 26.0036 21.9969 26.0036 21.9956 26.0036L22 25.5036M22 25.5036L18.4573 24.1672M18.4573 24.1672C18.4574 24.1674 18.4576 24.1675 18.4577 24.1676L18.7586 23.7682L18.4568 24.1669C18.457 24.167 18.4571 24.1671 18.4573 24.1672ZM18.4573 24.1672C15.5247 21.9579 14.2881 21.0135 13.5 20.3924M13.5 20.3924V19.7979C13.5 19.9023 13.4377 20.0001 13.3432 20.0478C13.2463 20.0967 13.1194 20.0899 13.0278 20.0163L13.2033 19.7979L13.341 19.6266L13.203 19.7979L13.0274 20.0159C13.1719 20.1324 13.3249 20.2544 13.5 20.3924ZM22.0089 23.8334L22 23.8333L21.9911 23.8334C21.8922 23.8352 21.7438 23.8022 21.5422 23.7108C21.3457 23.6217 21.1311 23.4923 20.9092 23.3393C20.6117 23.1341 20.3492 22.9234 20.1094 22.7308C19.9732 22.6214 19.8442 22.5179 19.7203 22.4246L19.7202 22.4245C15.4023 19.1749 14.783 18.6723 13.8655 17.9277C13.7929 17.8687 13.7183 17.8082 13.6399 17.7447C13.5528 17.6724 13.5 17.5633 13.5 17.4427V16.75C13.5 16.0427 14.049 15.5 14.6875 15.5H29.3125C29.951 15.5 30.5 16.0427 30.5 16.75V17.4427C30.5 17.5671 30.4445 17.6767 30.3631 17.7422L30.3611 17.7439C30.3001 17.7935 30.2415 17.8412 30.1843 17.8878C29.2384 18.658 28.6769 19.1153 24.2798 22.4245L24.2797 22.4246C24.1558 22.5179 24.0268 22.6214 23.8906 22.7308C23.6508 22.9234 23.3883 23.1341 23.0908 23.3393C22.8689 23.4923 22.6543 23.6217 22.4578 23.7108C22.2562 23.8022 22.1078 23.8352 22.0089 23.8334Z" stroke="white"/>
</svg>
