    <svg
      width="45"
      height="43"
      viewBox="0 0 45 43"
      fill="none"
      xmlns="http://www.w3.org/2000/svg"
    >
      <path
        d="M24.2542 31.2198C17.4601 30.469 13.2743 24.4778 14.8902 17.8466C14.9612 17.5553 15.2285 17.3285 15.5306 17.2955L18.437 16.9785C18.5903 16.9618 18.7383 16.9968 18.8551 17.0775C18.972 17.1581 19.0504 17.2792 19.0764 17.4196L19.6413 20.4602C19.6654 20.5901 19.6435 20.7292 19.5788 20.8565C19.5141 20.9838 19.4102 21.0924 19.2827 21.1659L17.364 22.2728C17.8431 24.4081 19.1368 26.2254 20.941 27.3813L22.6373 25.9569C22.7501 25.8622 22.8877 25.8017 23.0294 25.7844C23.1712 25.7672 23.3094 25.7941 23.4232 25.8612L26.0872 27.432C26.2102 27.5045 26.2973 27.6196 26.333 27.757C26.3688 27.8944 26.3511 28.0454 26.283 28.1837L24.9911 30.8065C24.9254 30.9398 24.8167 31.0533 24.6829 31.1284C24.5491 31.2034 24.3979 31.2356 24.2542 31.2198V31.2198ZM20.9059 16.1128C21.6886 16.415 22.186 17.1253 22.2022 17.9641C22.2077 18.2441 21.9363 18.4879 21.6474 18.462L21.3398 18.4346C21.1385 18.4166 20.9929 18.2694 20.9795 18.0758C20.9665 17.8892 20.9053 17.7141 20.8013 17.5655C20.6973 17.417 20.5537 17.2997 20.3828 17.2236C20.2054 17.1448 20.1169 16.9576 20.1689 16.7623L20.2483 16.4638C20.3228 16.1836 20.6446 16.0119 20.9059 16.1128V16.1128ZM22.0616 11.4364C25.4361 12.1102 27.5124 15.0788 26.9919 18.4776C26.9531 18.7306 26.7006 18.9252 26.442 18.9021L26.1435 18.8755C25.9087 18.8545 25.7526 18.6603 25.787 18.4305C26.2098 15.6094 24.487 13.1517 21.6937 12.5847C21.466 12.5384 21.3369 12.3253 21.3975 12.0975L21.4745 11.8079C21.5413 11.557 21.8105 11.3862 22.0616 11.4364V11.4364ZM21.4682 13.7578C23.5588 14.2585 24.8524 16.102 24.6075 18.2412C24.5777 18.5013 24.3208 18.707 24.0552 18.6832L23.7556 18.6564C23.529 18.6361 23.3726 18.454 23.3965 18.2322C23.5672 16.6468 22.6105 15.2806 21.0625 14.8988C20.8459 14.8454 20.7283 14.6362 20.7867 14.4163L20.8639 14.1256C20.9324 13.8678 21.2136 13.6968 21.4682 13.7578V13.7578Z"
        stroke="white"
      />
      <path
        d="M43 21.5C43 32.1848 33.9085 41 22.5 41C11.0915 41 2 32.1848 2 21.5C2 10.8152 11.0915 2 22.5 2C33.9085 2 43 10.8152 43 21.5Z"
        stroke="white"
        stroke-width="4"
      />
    </svg>